<svg id="visual" viewBox="0 0 960 540" width="960" height="540" xmlns="http://www.w3.org/2000/svg" xmlns:xlink="http://www.w3.org/1999/xlink" version="1.1"><g stroke-width="1" stroke-linejoin="bevel"><path d="M438.7 273L444.7 365L524.3 276Z" fill="#ba87f8" stroke="#ba87f8"></path><path d="M444.7 365L530.3 391L524.3 276Z" fill="#c387f8" stroke="#c387f8"></path><path d="M530.3 391L619 345L524.3 276Z" fill="#9f87f7" stroke="#9f87f7"></path><path d="M438.7 273L341 390L444.7 365Z" fill="#c387f8" stroke="#c387f8"></path><path d="M444.7 365L496.3 485L530.3 391Z" fill="#e487f6" stroke="#e487f6"></path><path d="M403.7 486L496.3 485L444.7 365Z" fill="#d487f7" stroke="#d487f7"></path><path d="M530.3 391L627 477L619 345Z" fill="#b187f8" stroke="#b187f8"></path><path d="M524.3 276L436.7 142L438.7 273Z" fill="#d487f7" stroke="#d487f7"></path><path d="M438.7 273L286 259L341 390Z" fill="#8c87f5" stroke="#8c87f5"></path><path d="M557.3 153L436.7 142L524.3 276Z" fill="#cb87f8" stroke="#cb87f8"></path><path d="M619 345L657 281L524.3 276Z" fill="#ba87f8" stroke="#ba87f8"></path><path d="M630 182L557.3 153L524.3 276Z" fill="#e487f6" stroke="#e487f6"></path><path d="M436.7 142L337 201L438.7 273Z" fill="#9f87f7" stroke="#9f87f7"></path><path d="M341 390L403.7 486L444.7 365Z" fill="#c387f8" stroke="#c387f8"></path><path d="M341 390L335 437L403.7 486Z" fill="#9687f6" stroke="#9687f6"></path><path d="M201.3 415L335 437L341 390Z" fill="#c387f8" stroke="#c387f8"></path><path d="M657 281L630 182L524.3 276Z" fill="#b187f8" stroke="#b187f8"></path><path d="M337 201L286 259L438.7 273Z" fill="#cb87f8" stroke="#cb87f8"></path><path d="M496.3 485L627 477L530.3 391Z" fill="#dc87f7" stroke="#dc87f7"></path><path d="M619 345L747.7 331L657 281Z" fill="#a887f7" stroke="#a887f7"></path><path d="M392.7 540L515.3 540L496.3 485Z" fill="#ba87f8" stroke="#ba87f8"></path><path d="M496.3 485L515.3 540L627 477Z" fill="#9f87f7" stroke="#9f87f7"></path><path d="M613 127L535.3 94L557.3 153Z" fill="#dc87f7" stroke="#dc87f7"></path><path d="M557.3 153L535.3 94L436.7 142Z" fill="#d487f7" stroke="#d487f7"></path><path d="M630 182L613 127L557.3 153Z" fill="#9687f6" stroke="#9687f6"></path><path d="M297 540L392.7 540L403.7 486Z" fill="#9687f6" stroke="#9687f6"></path><path d="M403.7 486L392.7 540L496.3 485Z" fill="#9f87f7" stroke="#9f87f7"></path><path d="M337 201L250.3 231L286 259Z" fill="#cb87f8" stroke="#cb87f8"></path><path d="M189.3 396L201.3 415L341 390Z" fill="#ba87f8" stroke="#ba87f8"></path><path d="M217.3 141L250.3 231L337 201Z" fill="#a887f7" stroke="#a887f7"></path><path d="M358 73L337 201L436.7 142Z" fill="#8c87f5" stroke="#8c87f5"></path><path d="M535.3 94L427.7 68L436.7 142Z" fill="#8c87f5" stroke="#8c87f5"></path><path d="M666 540L707.7 449L627 477Z" fill="#9687f6" stroke="#9687f6"></path><path d="M627 477L707.7 449L619 345Z" fill="#ba87f8" stroke="#ba87f8"></path><path d="M657 281L765.7 257L630 182Z" fill="#dc87f7" stroke="#dc87f7"></path><path d="M707.7 449L747.7 331L619 345Z" fill="#c387f8" stroke="#c387f8"></path><path d="M630 182L720.7 108L613 127Z" fill="#cb87f8" stroke="#cb87f8"></path><path d="M427.7 68L358 73L436.7 142Z" fill="#dc87f7" stroke="#dc87f7"></path><path d="M242.3 540L297 540L335 437Z" fill="#e487f6" stroke="#e487f6"></path><path d="M335 437L297 540L403.7 486Z" fill="#a887f7" stroke="#a887f7"></path><path d="M515.3 540L666 540L627 477Z" fill="#dc87f7" stroke="#dc87f7"></path><path d="M747.7 331L765.7 257L657 281Z" fill="#8c87f5" stroke="#8c87f5"></path><path d="M189.3 396L341 390L286 259Z" fill="#9f87f7" stroke="#9f87f7"></path><path d="M250.3 231L189.3 396L286 259Z" fill="#9687f6" stroke="#9687f6"></path><path d="M358 73L217.3 141L337 201Z" fill="#9687f6" stroke="#9687f6"></path><path d="M250.3 231L100.7 322L189.3 396Z" fill="#e487f6" stroke="#e487f6"></path><path d="M774.7 160L720.7 108L630 182Z" fill="#c387f8" stroke="#c387f8"></path><path d="M661 0L521.3 0L535.3 94Z" fill="#cb87f8" stroke="#cb87f8"></path><path d="M535.3 94L521.3 0L427.7 68Z" fill="#8c87f5" stroke="#8c87f5"></path><path d="M661 0L535.3 94L613 127Z" fill="#a887f7" stroke="#a887f7"></path><path d="M427.7 68L390.7 0L358 73Z" fill="#d487f7" stroke="#d487f7"></path><path d="M666 540L713.7 540L707.7 449Z" fill="#a887f7" stroke="#a887f7"></path><path d="M707.7 449L863.3 339L747.7 331Z" fill="#9f87f7" stroke="#9f87f7"></path><path d="M747.7 331L863.3 339L765.7 257Z" fill="#9687f6" stroke="#9687f6"></path><path d="M201.3 415L242.3 540L335 437Z" fill="#c387f8" stroke="#c387f8"></path><path d="M109.7 465L242.3 540L201.3 415Z" fill="#e487f6" stroke="#e487f6"></path><path d="M521.3 0L390.7 0L427.7 68Z" fill="#dc87f7" stroke="#dc87f7"></path><path d="M358 73L204.3 95L217.3 141Z" fill="#8c87f5" stroke="#8c87f5"></path><path d="M765.7 257L774.7 160L630 182Z" fill="#e487f6" stroke="#e487f6"></path><path d="M302 0L204.3 95L358 73Z" fill="#9f87f7" stroke="#9f87f7"></path><path d="M76.7 295L100.7 322L88.7 196Z" fill="#e487f6" stroke="#e487f6"></path><path d="M390.7 0L302 0L358 73Z" fill="#8c87f5" stroke="#8c87f5"></path><path d="M785.7 0L661 0L720.7 108Z" fill="#cb87f8" stroke="#cb87f8"></path><path d="M720.7 108L661 0L613 127Z" fill="#a887f7" stroke="#a887f7"></path><path d="M100.7 322L250.3 231L88.7 196Z" fill="#c387f8" stroke="#c387f8"></path><path d="M189.3 396L109.7 465L201.3 415Z" fill="#dc87f7" stroke="#dc87f7"></path><path d="M882.3 470L863.3 339L707.7 449Z" fill="#dc87f7" stroke="#dc87f7"></path><path d="M765.7 257L860.3 261L774.7 160Z" fill="#9687f6" stroke="#9687f6"></path><path d="M863.3 339L860.3 261L765.7 257Z" fill="#9687f6" stroke="#9687f6"></path><path d="M774.7 160L849.3 128L720.7 108Z" fill="#9f87f7" stroke="#9f87f7"></path><path d="M100.7 322L109.7 465L189.3 396Z" fill="#8c87f5" stroke="#8c87f5"></path><path d="M88.7 196L250.3 231L217.3 141Z" fill="#e487f6" stroke="#e487f6"></path><path d="M100.7 322L0 387L109.7 465Z" fill="#d487f7" stroke="#d487f7"></path><path d="M302 0L226.3 0L204.3 95Z" fill="#9687f6" stroke="#9687f6"></path><path d="M204.3 95L88.7 196L217.3 141Z" fill="#8c87f5" stroke="#8c87f5"></path><path d="M67.7 96L88.7 196L204.3 95Z" fill="#dc87f7" stroke="#dc87f7"></path><path d="M889.3 175L849.3 128L774.7 160Z" fill="#c387f8" stroke="#c387f8"></path><path d="M850.3 540L882.3 470L707.7 449Z" fill="#ba87f8" stroke="#ba87f8"></path><path d="M960 295L889.3 175L860.3 261Z" fill="#a887f7" stroke="#a887f7"></path><path d="M860.3 261L889.3 175L774.7 160Z" fill="#b187f8" stroke="#b187f8"></path><path d="M713.7 540L850.3 540L707.7 449Z" fill="#9687f6" stroke="#9687f6"></path><path d="M960 295L860.3 261L863.3 339Z" fill="#d487f7" stroke="#d487f7"></path><path d="M884.3 0L785.7 0L849.3 128Z" fill="#8c87f5" stroke="#8c87f5"></path><path d="M849.3 128L785.7 0L720.7 108Z" fill="#b187f8" stroke="#b187f8"></path><path d="M0 540L100.7 540L109.7 465Z" fill="#b187f8" stroke="#b187f8"></path><path d="M109.7 465L100.7 540L242.3 540Z" fill="#9687f6" stroke="#9687f6"></path><path d="M0 236L0 387L76.7 295Z" fill="#c387f8" stroke="#c387f8"></path><path d="M117.7 0L67.7 96L204.3 95Z" fill="#ba87f8" stroke="#ba87f8"></path><path d="M960 353L960 295L863.3 339Z" fill="#dc87f7" stroke="#dc87f7"></path><path d="M226.3 0L117.7 0L204.3 95Z" fill="#cb87f8" stroke="#cb87f8"></path><path d="M882.3 470L960 353L863.3 339Z" fill="#9f87f7" stroke="#9f87f7"></path><path d="M960 483L960 353L882.3 470Z" fill="#9687f6" stroke="#9687f6"></path><path d="M76.7 295L0 387L100.7 322Z" fill="#b187f8" stroke="#b187f8"></path><path d="M0 236L76.7 295L88.7 196Z" fill="#d487f7" stroke="#d487f7"></path><path d="M0 173L0 236L88.7 196Z" fill="#dc87f7" stroke="#dc87f7"></path><path d="M0 387L0 445L109.7 465Z" fill="#9687f6" stroke="#9687f6"></path><path d="M0 98L0 173L67.7 96Z" fill="#a887f7" stroke="#a887f7"></path><path d="M67.7 96L0 173L88.7 196Z" fill="#e487f6" stroke="#e487f6"></path><path d="M960 295L960 153L889.3 175Z" fill="#b187f8" stroke="#b187f8"></path><path d="M889.3 175L960 153L849.3 128Z" fill="#dc87f7" stroke="#dc87f7"></path><path d="M960 540L960 483L882.3 470Z" fill="#d487f7" stroke="#d487f7"></path><path d="M960 66L884.3 0L849.3 128Z" fill="#c387f8" stroke="#c387f8"></path><path d="M0 0L0 98L67.7 96Z" fill="#cb87f8" stroke="#cb87f8"></path><path d="M850.3 540L960 540L882.3 470Z" fill="#ba87f8" stroke="#ba87f8"></path><path d="M0 445L0 540L109.7 465Z" fill="#ba87f8" stroke="#ba87f8"></path><path d="M960 153L960 66L849.3 128Z" fill="#a887f7" stroke="#a887f7"></path><path d="M960 66L960 0L884.3 0Z" fill="#cb87f8" stroke="#cb87f8"></path><path d="M117.7 0L0 0L67.7 96Z" fill="#b187f8" stroke="#b187f8"></path></g></svg>